# xmcd
#
# Track frame offsets:
#	150
#	34160
#	61563
#	86501
#	102565
#	137879
#	162768
#	190539
#	212451
#	241497
#	268041
#	302450
#
# Disc length: 4469 seconds
# Revision: 0
# Processed by: cddbd v1.5.2PL0 Copyright (c) Steve Scherf et al.
# Submitted via: dBpowerAMP V12.0
#
DISCID=9711730c
DTITLE=Various Artist - Icon
DYEAR=2011
DGENRE=R&B
TTITLE0=Teena Marie - I Need Your Lovin'
TTITLE1=Teena Marie - Behind The Groove
TTITLE2=Teena Marie - Now That I Have You
TTITLE3=Teena Marie - Irons In The Fire
TTITLE4=Teena Marie - Portuguese Love
TTITLE5=Teena Marie - Young Love
TTITLE6=Teena Marie - It Must Be Magic
TTITLE7=Teena Marie - Aladdin's Lamp
TTITLE8=Teena Marie - Square Biz
TTITLE9=Teena Marie - I'm A Sucker For Your Love
TTITLE10=Teena Marie - Deja Vu (I've Been Here Before)
TTITLE11=Rick James and Teena Marie - Fire And Desire
EXTD=
EXTT0=
EXTT1=
EXTT2=
EXTT3=
EXTT4=
EXTT5=
EXTT6=
EXTT7=
EXTT8=
EXTT9=
EXTT10=
EXTT11=
PLAYORDER=
